<svg width="20" height="20" viewBox="0 0 20 20" fill="none" xmlns="http://www.w3.org/2000/svg">
<g clip-path="url(#clip0_132_20490)">
<path d="M8.55078 17.4915C8.697 17.7447 8.90729 17.955 9.16052 18.1011C9.41375 18.2473 9.701 18.3243 9.9934 18.3243C10.2858 18.3243 10.5731 18.2473 10.8263 18.1011C11.0795 17.955 11.2898 17.7447 11.436 17.4915" stroke="#0A0A0A" stroke-opacity="0.6" stroke-width="1.66584" stroke-linecap="round" stroke-linejoin="round"/>
<path d="M2.71762 12.7653C2.60881 12.8846 2.537 13.0329 2.51093 13.1922C2.48486 13.3515 2.50565 13.515 2.57078 13.6627C2.6359 13.8104 2.74255 13.936 2.87775 14.0242C3.01295 14.1125 3.17088 14.1595 3.33231 14.1596H16.6591C16.8205 14.1597 16.9785 14.1128 17.1137 14.0248C17.249 13.9367 17.3558 13.8112 17.4211 13.6636C17.4864 13.516 17.5074 13.3526 17.4815 13.1932C17.4557 13.0339 17.3841 12.8855 17.2754 12.7661C16.1676 11.6242 14.9932 10.4106 14.9932 6.66331C14.9932 5.33788 14.4667 4.06674 13.5295 3.12952C12.5923 2.1923 11.3211 1.66577 9.99569 1.66577C8.67027 1.66577 7.39912 2.1923 6.4619 3.12952C5.52468 4.06674 4.99816 5.33788 4.99816 6.66331C4.99816 10.4106 3.82291 11.6242 2.71762 12.7653Z" stroke="#0A0A0A" stroke-opacity="0.6" stroke-width="1.66584" stroke-linecap="round" stroke-linejoin="round"/>
</g>
<defs>
<clipPath id="clip0_132_20490">
<rect width="19.9901" height="19.9901" fill="white"/>
</clipPath>
</defs>
</svg>
