<svg width="18" height="18" viewBox="0 0 18 18" fill="none" xmlns="http://www.w3.org/2000/svg">
<path d="M13.4938 1.49902H4.49912C3.67118 1.49902 3 2.1702 3 2.99814V14.9911C3 15.819 3.67118 16.4902 4.49912 16.4902H13.4938C14.3218 16.4902 14.993 15.819 14.993 14.9911V2.99814C14.993 2.1702 14.3218 1.49902 13.4938 1.49902Z" stroke="#6B7280" stroke-width="1.49912" stroke-linecap="round" stroke-linejoin="round"/>
<path d="M6.74609 16.4904V13.4922H11.2435V16.4904" stroke="#6B7280" stroke-width="1.49912" stroke-linecap="round" stroke-linejoin="round"/>
<path d="M5.99609 4.49756H6.00359" stroke="#6B7280" stroke-width="1.49912" stroke-linecap="round" stroke-linejoin="round"/>
<path d="M11.9922 4.49756H11.9997" stroke="#6B7280" stroke-width="1.49912" stroke-linecap="round" stroke-linejoin="round"/>
<path d="M8.99609 4.49756H9.00359" stroke="#6B7280" stroke-width="1.49912" stroke-linecap="round" stroke-linejoin="round"/>
<path d="M8.99609 7.49561H9.00359" stroke="#6B7280" stroke-width="1.49912" stroke-linecap="round" stroke-linejoin="round"/>
<path d="M8.99609 10.4937H9.00359" stroke="#6B7280" stroke-width="1.49912" stroke-linecap="round" stroke-linejoin="round"/>
<path d="M11.9922 7.49561H11.9997" stroke="#6B7280" stroke-width="1.49912" stroke-linecap="round" stroke-linejoin="round"/>
<path d="M11.9922 10.4937H11.9997" stroke="#6B7280" stroke-width="1.49912" stroke-linecap="round" stroke-linejoin="round"/>
<path d="M5.99609 7.49561H6.00359" stroke="#6B7280" stroke-width="1.49912" stroke-linecap="round" stroke-linejoin="round"/>
<path d="M5.99609 10.4937H6.00359" stroke="#6B7280" stroke-width="1.49912" stroke-linecap="round" stroke-linejoin="round"/>
</svg>
