<svg width="20" height="20" viewBox="0 0 20 20" fill="none" xmlns="http://www.w3.org/2000/svg">
<path d="M13.327 2.49878H4.16487C3.72306 2.49878 3.29934 2.67429 2.98694 2.98669C2.67453 3.2991 2.49902 3.72281 2.49902 4.16462V15.8255C2.49902 16.2673 2.67453 16.6911 2.98694 17.0035C3.29934 17.3159 3.72306 17.4914 4.16487 17.4914H15.8258C16.2676 17.4914 16.6913 17.3159 17.0037 17.0035C17.3161 16.6911 17.4916 16.2673 17.4916 15.8255V6.66339L13.327 2.49878Z" stroke="#0A0A0A" stroke-opacity="0.6" stroke-width="1.66584" stroke-linecap="round" stroke-linejoin="round"/>
<path d="M12.4941 2.49878V5.83047C12.4941 6.27228 12.6696 6.69599 12.9821 7.0084C13.2945 7.32081 13.7182 7.49631 14.16 7.49631H17.4917" stroke="#0A0A0A" stroke-opacity="0.6" stroke-width="1.66584" stroke-linecap="round" stroke-linejoin="round"/>
</svg>
